<?xml version="1.0" standalone="no"?>
<!DOCTYPE svg PUBLIC "-//W3C//DTD SVG 20010904//EN"
 "http://www.w3.org/TR/2001/REC-SVG-20010904/DTD/svg10.dtd">
<svg version="1.0" xmlns="http://www.w3.org/2000/svg"
 width="260.000000pt" height="260.000000pt" viewBox="0 0 260.000000 260.000000"
 preserveAspectRatio="xMidYMid meet">
<metadata>
Created by potrace 1.14, written by Peter Selinger 2001-2017
</metadata>
<g transform="translate(0.000000,260.000000) scale(0.100000,-0.100000)"
fill="#000000" stroke="none">
<path d="M1845 2072 c-109 -12 -331 -96 -409 -156 -54 -40 -65 -40 -168 12
-87 44 -149 67 -277 104 -71 20 -275 17 -341 -6 -173 -59 -348 -236 -393 -396
-27 -98 -10 -279 34 -365 60 -116 130 -179 307 -277 70 -39 139 -79 154 -89
14 -11 29 -19 32 -19 3 0 60 -36 126 -80 66 -45 151 -97 188 -117 37 -19 101
-59 142 -88 114 -79 105 -80 212 23 133 127 203 190 285 256 40 32 85 70 100
85 15 16 84 79 153 142 204 185 249 231 289 294 71 114 89 197 68 324 -26 163
-131 272 -307 321 -25 7 -54 16 -65 21 -24 10 -89 15 -130 11z"/>
</g>
</svg>
